# Tiled2Unity generated file. Do not modify by hand.
# Wavefront file for 'map_mesh_0001.obj'

# Vertices (Count = 84)
v -2205 -2442 0
v -2333 -2442 0
v -2333 -2314 0
v -2205 -2314 0
v -2268 -2479 0
v -2396 -2479 0
v -2396 -2351 0
v -2268 -2351 0
v -2331 -2516 0
v -2459 -2516 0
v -2459 -2388 0
v -2331 -2388 0
v -2394 -2553 0
v -2522 -2553 0
v -2522 -2425 0
v -2394 -2425 0
v -2457 -2590 0
v -2585 -2590 0
v -2585 -2462 0
v -2457 -2462 0
v -2520 -2627 0
v -2648 -2627 0
v -2648 -2499 0
v -2520 -2499 0
v -2583 -2664 0
v -2711 -2664 0
v -2711 -2536 0
v -2583 -2536 0
v -2646 -2701 0
v -2774 -2701 0
v -2774 -2573 0
v -2646 -2573 0
v -2709 -2738 0
v -2837 -2738 0
v -2837 -2610 0
v -2709 -2610 0
v -2772 -2775 0
v -2900 -2775 0
v -2900 -2647 0
v -2772 -2647 0
v -2835 -2812 0
v -2963 -2812 0
v -2963 -2684 0
v -2835 -2684 0
v -2898 -2849 0
v -3026 -2849 0
v -3026 -2721 0
v -2898 -2721 0
v -2961 -2886 0
v -3089 -2886 0
v -3089 -2758 0
v -2961 -2758 0
v -3024 -2923 0
v -3152 -2923 0
v -3152 -2795 0
v -3024 -2795 0
v -3087 -2960 0
v -3215 -2960 0
v -3215 -2832 0
v -3087 -2832 0
v -3150 -2997 0
v -3278 -2997 0
v -3278 -2869 0
v -3150 -2869 0
v -3213 -3034 0
v -3341 -3034 0
v -3341 -2906 0
v -3213 -2906 0
v -3276 -3071 0
v -3404 -3071 0
v -3404 -2943 0
v -3276 -2943 0
v -3339 -3108 0
v -3467 -3108 0
v -3467 -2980 0
v -3339 -2980 0
v -3402 -3145 0
v -3530 -3145 0
v -3530 -3017 0
v -3402 -3017 0
v -3465 -3182 0
v -3593 -3182 0
v -3593 -3054 0
v -3465 -3054 0

# Texture cooridinates (Count = 4)
vt 0 0
vt 1 0
vt 1 1
vt 0 1

# Normal
vn 0 0 -1

# Mesh description
g map_mesh_0001

# Faces
f 1/1/1 2/2/1 3/3/1 4/4/1
f 5/1/1 6/2/1 7/3/1 8/4/1
f 9/1/1 10/2/1 11/3/1 12/4/1
f 13/1/1 14/2/1 15/3/1 16/4/1
f 17/1/1 18/2/1 19/3/1 20/4/1
f 21/1/1 22/2/1 23/3/1 24/4/1
f 25/1/1 26/2/1 27/3/1 28/4/1
f 29/1/1 30/2/1 31/3/1 32/4/1
f 33/1/1 34/2/1 35/3/1 36/4/1
f 37/1/1 38/2/1 39/3/1 40/4/1
f 41/1/1 42/2/1 43/3/1 44/4/1
f 45/1/1 46/2/1 47/3/1 48/4/1
f 49/1/1 50/2/1 51/3/1 52/4/1
f 53/1/1 54/2/1 55/3/1 56/4/1
f 57/1/1 58/2/1 59/3/1 60/4/1
f 61/1/1 62/2/1 63/3/1 64/4/1
f 65/1/1 66/2/1 67/3/1 68/4/1
f 69/1/1 70/2/1 71/3/1 72/4/1
f 73/1/1 74/2/1 75/3/1 76/4/1
f 77/1/1 78/2/1 79/3/1 80/4/1
f 81/1/1 82/2/1 83/3/1 84/4/1

