# Tiled2Unity generated file. Do not modify by hand.
# Wavefront file for 'Maps_mesh_0002.obj'

# Vertices (Count = 16)
v -2646 -1184 0
v -2774 -1184 0
v -2774 -1056 0
v -2646 -1056 0
v -2520 -1258 0
v -2648 -1258 0
v -2648 -1130 0
v -2520 -1130 0
v -1071 -703 0
v -1199 -703 0
v -1199 -575 0
v -1071 -575 0
v -693 -925 0
v -821 -925 0
v -821 -797 0
v -693 -797 0

# Texture cooridinates (Count = 4)
vt 0 0
vt 1 0
vt 1 1
vt 0 1

# Normal
vn 0 0 -1

# Mesh description
g Maps_mesh_0002

# Faces
f 1/1/1 2/2/1 3/3/1 4/4/1
f 5/1/1 6/2/1 7/3/1 8/4/1
f 9/1/1 10/2/1 11/3/1 12/4/1
f 13/1/1 14/2/1 15/3/1 16/4/1

