# Tiled2Unity generated file. Do not modify by hand.
# Wavefront file for 'Maps_mesh_0011.obj'

# Vertices (Count = 12)
v -2457 -1295 0
v -2585 -1295 0
v -2585 -1167 0
v -2457 -1167 0
v -1386 -814 0
v -1514 -814 0
v -1514 -686 0
v -1386 -686 0
v -630 -962 0
v -758 -962 0
v -758 -834 0
v -630 -834 0

# Texture cooridinates (Count = 4)
vt 0 0
vt 1 0
vt 1 1
vt 0 1

# Normal
vn 0 0 -1

# Mesh description
g Maps_mesh_0011

# Faces
f 1/1/1 2/2/1 3/3/1 4/4/1
f 5/1/1 6/2/1 7/3/1 8/4/1
f 9/1/1 10/2/1 11/3/1 12/4/1

