# Tiled2Unity generated file. Do not modify by hand.
# Wavefront file for 'Maps_mesh_0005.obj'

# Vertices (Count = 28)
v -1575 -777 0
v -1703 -777 0
v -1703 -649 0
v -1575 -649 0
v -2331 -1221 0
v -2459 -1221 0
v -2459 -1093 0
v -2331 -1093 0
v -2394 -1258 0
v -2522 -1258 0
v -2522 -1130 0
v -2394 -1130 0
v -1197 -703 0
v -1325 -703 0
v -1325 -575 0
v -1197 -575 0
v -1323 -777 0
v -1451 -777 0
v -1451 -649 0
v -1323 -649 0
v -63 -629 0
v -191 -629 0
v -191 -501 0
v -63 -501 0
v -567 -925 0
v -695 -925 0
v -695 -797 0
v -567 -797 0

# Texture cooridinates (Count = 4)
vt 0 0
vt 1 0
vt 1 1
vt 0 1

# Normal
vn 0 0 -1

# Mesh description
g Maps_mesh_0005

# Faces
f 1/1/1 2/2/1 3/3/1 4/4/1
f 5/1/1 6/2/1 7/3/1 8/4/1
f 9/1/1 10/2/1 11/3/1 12/4/1
f 13/1/1 14/2/1 15/3/1 16/4/1
f 17/1/1 18/2/1 19/3/1 20/4/1
f 21/1/1 22/2/1 23/3/1 24/4/1
f 25/1/1 26/2/1 27/3/1 28/4/1

